<?xml version="1.0" encoding="UTF-8" standalone="no"?>
<svg
   xmlns:dc="http://purl.org/dc/elements/1.1/"
   xmlns:cc="http://creativecommons.org/ns#"
   xmlns:rdf="http://www.w3.org/1999/02/22-rdf-syntax-ns#"
   xmlns:svg="http://www.w3.org/2000/svg"
   xmlns="http://www.w3.org/2000/svg"
   viewBox="0 0 690.66669 270.66666"
   height="270.66666"
   width="690.66669"
   xml:space="preserve"
   id="svg2"
   version="1.1"><metadata
     id="metadata8"><rdf:RDF><cc:Work
         rdf:about=""><dc:format>image/svg+xml</dc:format><dc:type
           rdf:resource="http://purl.org/dc/dcmitype/StillImage" /></cc:Work></rdf:RDF></metadata><defs
     id="defs6" /><g
     transform="matrix(1.3333333,0,0,-1.3333333,0,270.66667)"
     id="g10"><g
       transform="scale(0.1)"
       id="g12"><path
         id="path14"
         style="fill:#BEC1C5;fill-opacity:1;fill-rule:evenodd;stroke:none"
         d="m 4569.74,572.754 -419.92,419.926 -99.01,-99.028 16.96,-16.945 255.46,-255.473 -43.88,-43.898 c -7.32,-7.297 -19.26,-7.297 -26.56,0 l -42.93,42.934 c 10.78,16.867 8.8,39.515 -5.95,54.265 -17.02,17 -44.63,17.012 -61.66,0 -17.02,-17.047 -17.02,-44.644 0,-61.668 13.78,-13.773 34.46,-16.41 50.86,-7.91 l 43.64,-43.641 c 16.11,-16.125 42.5,-16.125 58.61,-0.007 l 43.91,43.89 28.74,-28.742 -87.42,-87.406 c -16.67,9.609 -38.31,7.285 -52.56,-6.961 -17.03,-17.047 -17.03,-44.637 0,-61.672 17.01,-17.023 44.6,-17.023 61.65,0 14.26,14.262 16.56,35.934 6.95,52.598 4.68,4.675 9.37,9.355 14.04,14.043 l 31.84,-31.84 c -9.62,-16.664 -7.29,-38.324 6.96,-52.586 17.03,-17.004 44.63,-17.004 61.66,0 17.03,17.043 17.03,44.637 0,61.68 -14.26,14.25 -35.92,16.566 -52.59,6.945 l -31.84,31.828 57.35,57.324 86.69,-86.672 c 9.43,-9.445 9.43,-25.601 0,-35.047 L 4293.25,261.219 4188.82,365.625 c 9.63,16.676 7.3,38.355 -6.94,52.605 -17.03,17.036 -44.64,17.036 -61.67,0 -17.02,-17.031 -17.02,-44.644 0,-61.656 14.26,-14.25 35.92,-16.566 52.59,-6.976 L 4277.21,245.184 4184.3,152.27 c -9.42,-9.434 -25.62,-9.434 -35.03,0 l -140.2,140.195 45.17,45.16 c 7.31,7.297 19.25,7.297 26.55,0 l 42.92,-42.926 c -10.77,-16.875 -8.78,-39.523 5.96,-54.254 17.02,-17.023 44.62,-17.043 61.67,0 17.01,17.024 17.01,44.625 0,61.649 -13.79,13.761 -34.47,16.41 -50.88,7.91 l -43.63,43.648 c -16.11,16.125 -42.49,16.125 -58.61,0 l -45.17,-45.16 -28.73,28.742 88.67,88.684 c 16.66,-9.621 38.31,-7.297 52.56,6.965 17.04,17.031 17.04,44.633 0,61.644 -17,17.039 -44.6,17.039 -61.64,0 -14.27,-14.238 -16.57,-35.898 -6.96,-52.582 -4.68,-4.679 -9.36,-9.355 -14.04,-14.043 l -31.83,31.84 c 9.61,16.664 7.28,38.313 -6.97,52.582 -17.03,17.016 -44.62,17.016 -61.66,0 -17.02,-17.043 -17.02,-44.633 0,-61.676 14.26,-14.242 35.93,-16.566 52.6,-6.945 l 31.82,-31.828 -58.6,-58.602 -85.43,85.418 c -9.44,9.446 -9.44,25.602 0,35.047 l 178.74,178.75 103.17,-103.164 c -9.61,-16.664 -7.3,-38.336 6.95,-52.586 17.03,-17.043 44.64,-17.043 61.66,0 17.03,17.032 17.03,44.633 0,61.649 -14.25,14.258 -35.91,16.562 -52.57,6.965 l -103.17,103.164 86.39,86.379 -99.03,99.027 -281.15,-281.168 c -64.11,-64.102 -64.11,-168.977 0,-233.086 L 4050.25,53.2617 c 64.11,-64.1211 168.97,-64.1172 233.09,0 l 286.4,286.4063 c 64.12,64.109 64.12,168.984 0,233.086 z m -175.38,-153.34 c -15.6,-15.586 -40.63,2.227 -32.45,21.66 5.55,13.207 22.51,16.395 32.45,6.461 7.77,-7.777 7.77,-20.347 0,-28.121 z m -127.92,50.223 c 13.25,-5.586 16.38,-22.516 6.46,-32.438 -7.75,-7.758 -20.35,-7.758 -28.11,0 -15.59,15.586 2.22,40.621 21.65,32.438 z M 4196.6,513.5 c -14.16,-14.137 -37.86,-0.715 -33.46,18.496 1.77,7.645 7.81,13.516 15.5,15.063 19.09,3.828 31.86,-19.641 17.96,-33.559 z m -41.65,-145.598 c -19.11,-3.816 -31.88,19.641 -17.98,33.559 14.12,14.113 37.87,0.773 33.46,-18.508 -1.75,-7.637 -7.81,-13.504 -15.48,-15.051 z m -66.16,109.868 c 15.6,-15.598 -2.22,-40.629 -21.66,-32.446 -13.22,5.586 -16.39,22.508 -6.45,32.446 7.75,7.757 20.35,7.757 28.11,0 z m 98.37,151.867 c -18.51,-18.535 -46.64,9.609 -28.14,28.117 18.5,18.512 46.65,-9.586 28.14,-28.117 z M 3971.67,473.883 c -5.54,-13.195 -22.5,-16.391 -32.45,-6.457 -7.77,7.777 -7.77,20.355 0,28.121 15.6,15.586 40.64,-2.238 32.45,-21.664 z m 174.76,-188.547 c 18.52,18.519 46.62,-9.621 28.12,-28.121 -18.49,-18.492 -46.63,9.555 -28.12,28.121" /><path
         id="path16"
         style="fill:#BEC1C5;fill-opacity:1;fill-rule:evenodd;stroke:none"
         d="m 3738.42,1046.38 h -99.56 v 96.69 h -63.29 v -96.69 h -98.97 v -62.15 h 99.54 v -96.097 h 62.72 v 96.097 h 99.56 v 62.15" /><path
         id="path18"
         style="fill:#BEC1C5;fill-opacity:1;fill-rule:evenodd;stroke:none"
         d="m 3625.06,1319.41 281.16,-281.17 99.02,99.02 -281.15,281.17 c -64.1,64.09 -168.99,64.09 -233.09,0 L 3204.58,1132 c -64.1,-64.11 -64.1,-168.984 0,-233.082 L 3491,612.504 c 64.1,-64.117 168.98,-64.129 233.09,0 l 419.91,419.906 -99.02,99.02 -419.92,-419.918 c -9.45,-9.449 -25.61,-9.434 -35.03,0 L 3303.6,997.934 c -9.45,9.456 -9.45,25.606 0,35.056 l 286.43,286.42 c 9.43,9.43 25.57,9.45 35.03,0" /><path
         id="path20"
         style="fill:#BEC1C5;fill-opacity:1;fill-rule:evenodd;stroke:none"
         d="m 3941.72,1280.25 242.01,-242.01 99.02,99.02 -16.93,16.95 -402.98,402.97 c -9.44,9.44 -9.44,25.61 0,35.04 l 286.43,286.42 c 9.43,9.45 25.59,9.45 35.03,0 l 286.44,-286.42 c 9.43,-9.43 9.43,-25.6 0,-35.04 l -281.17,-281.16 99.02,-99.03 281.15,281.17 c 64.12,64.1 64.12,168.98 0,233.09 l -286.41,286.41 c -64.11,64.11 -168.98,64.1 -233.08,0 l -286.42,-286.41 c -64.11,-64.11 -64.11,-168.99 0,-233.09 l 177.89,-177.91" /><path
         id="path22"
         style="fill:#BEC1C5;fill-opacity:1;fill-rule:evenodd;stroke:none"
         d="m 4061.34,1573.65 c 0,-58.22 47.2,-105.4 105.4,-105.4 65.6,0 114.79,59.13 103.95,123.19 -24.53,-38 -84.18,-20.81 -84.18,24.74 0,22.88 16.79,41.83 38.72,45.19 -69.06,46.2 -163.89,-2.89 -163.89,-87.72" /><path
         id="path24"
         style="fill:#BEC1C5;fill-opacity:1;fill-rule:evenodd;stroke:none"
         d="m 4298.97,1573.65 c 0,-73.01 -59.19,-132.2 -132.23,-132.2 -72.99,0 -132.18,59.19 -132.18,132.2 0,73.02 59.19,132.21 132.18,132.21 73.04,0 132.23,-59.19 132.23,-132.21 z m -132.23,-177.33 c 97.96,0 177.36,79.4 177.36,177.33 0,97.96 -79.4,177.39 -177.36,177.39 -97.91,0 -177.32,-79.43 -177.32,-177.39 0,-97.93 79.41,-177.33 177.32,-177.33" /><path
         id="path26"
         style="fill:#BEC1C5;fill-opacity:1;fill-rule:evenodd;stroke:none"
         d="m 4609.5,1418.41 -303.96,-303.93 -115.97,-115.96 99.02,-99.036 133.21,133.196 286.71,286.73 c 9.46,9.44 25.59,9.43 35.04,0 l 286.42,-286.43 c 9.45,-9.44 9.45,-25.59 0,-35.046 L 4743.55,711.5 c -9.42,-9.406 -25.61,-9.422 -35.04,0 l -281.17,281.18 -99.01,-99.028 281.15,-281.148 c 64.11,-64.129 168.98,-64.121 233.09,0 l 286.41,286.414 c 64.13,64.098 64.13,168.972 0,233.082 l -286.41,286.41 c -64.09,64.11 -168.96,64.13 -233.07,0" /><path
         id="path28"
         style="fill:#BEC1C5;fill-opacity:1;fill-rule:evenodd;stroke:none"
         d="m 4846.5,1057.56 h -241.51 v -85.205 h 241.51 v 85.205" /><path
         id="path30"
         style="fill:#BEC1C5;fill-opacity:1;fill-rule:evenodd;stroke:none"
         d="M 3431.61,553.121 3145.2,839.535 c -96.89,96.879 -96.89,254.975 0,351.855 l 286.42,286.42 c 53.12,53.12 126.93,78.95 201.46,71.37 -5.62,55.14 7.03,111.8 37.96,160 H 300.336 C 135.57,1709.18 0.785156,1574.38 0.785156,1409.63 V 621.285 C 0.785156,456.527 135.57,321.734 300.336,321.734 H 3671.04 c -30.93,48.188 -43.58,104.856 -37.96,159.993 -74.52,-7.586 -148.35,18.273 -201.47,71.394 z M 1710.64,1296.35 1939.6,734.563 h -135.74 l -161.09,395.777 -161.1,-395.777 h -134.92 l 228.96,561.787 z m 711.59,-561.787 h -400.69 v 561.787 h 121.02 V 843.324 h 279.67 z m 97.48,0 v 561.787 h 432.57 v -108.76 h -311.54 v -121.85 h 282.11 V 956.98 H 2640.74 V 734.563 Z m -2167.034,0 H 232.477 V 1296.35 H 352.676 V 1038.76 L 580,1296.35 H 726.375 L 507.238,1052.66 741.906,734.563 H 595.539 L 423.008,966.797 352.676,891.563 Z m 589.754,0 H 821.418 V 1296.35 H 942.43 Z m 337.08,174.179 h -224.05 v 101.398 h 224.05 V 908.742" /></g></g></svg>